<svg id="Capa_1" enable-background="new 0 0 511.963 511.963" height="512" viewBox="0 0 511.963 511.963" width="512" xmlns="http://www.w3.org/2000/svg"><g><g><g><path d="m457.404 95.988c-134.282-10.584-268.564-10.584-402.846 0-20.049 1.58-36.066 17.257-38.234 37.251-11.786 108.688-11.786 217.377 0 326.065 2.168 19.993 18.186 35.67 38.234 37.251 134.282 10.584 268.564 10.584 402.846 0 20.048-1.58 36.066-17.257 38.234-37.251 11.786-108.688 11.786-217.377 0-326.065-2.168-19.994-18.185-35.67-38.234-37.251z" fill="#f1f4f6"/><g fill="#d0e2e7"><path d="m63.306 497.218c-2.922-.21-5.834-.431-8.746-.662-20.046-1.577-36.067-17.261-38.232-37.255-11.784-108.684-11.784-217.379 0-326.063 2.165-19.994 18.186-35.667 38.232-37.255 2.912-.231 5.824-.452 8.746-.662-10.155 7.011-17.177 18.249-18.585 31.242-12.268 113.141-12.268 226.272 0 339.413 1.408 12.993 8.431 24.231 18.585 31.242z"/><path d="m501.606 203.323c-11.122 23.568-31.662 50.92-57.648 77.894-13.487 14.002-28.446 27.899-44.319 41.102-9.04 7.527-18.386 14.822-27.92 21.791-37.665 27.542-78.367 49.901-115.738 60.402-36.708-10.312-76.612-32.062-113.709-58.92-25.523-18.48-49.712-39.378-70.63-60.633-1.104-1.125-2.197-2.239-3.269-3.364-26.154-27.079-46.831-54.579-58.016-78.252 1.44-23.368 3.437-46.737 5.971-70.105-2.46 28.12 23.715 72.481 63.083 115.79 1.009 1.125 2.039 2.239 3.08 3.364 19.679 21.255 42.448 42.153 66.468 60.633 34.921 26.858 72.47 48.608 107.023 58.92 35.174-10.502 73.479-32.861 108.926-60.402 8.977-6.969 17.765-14.265 26.28-21.792 14.938-13.203 29.013-27.1 41.712-41.102 39.168-43.194 65.185-87.376 62.736-115.412l.01.032c2.533 23.349 4.52 46.696 5.96 70.054z"/></g></g><circle cx="255.981" cy="126.486" fill="#78d0b1" r="118.987"/><path d="m271.943 244.404c-5.22.71-10.55 1.07-15.96 1.07-65.719 0-118.989-53.279-118.989-118.988 0-65.719 53.269-118.989 118.989-118.989 5.41 0 10.74.36 15.96 1.07-58.169 7.79-103.029 57.61-103.029 117.919 0 60.299 44.86 110.129 103.029 117.918z" fill="#66b49d"/><path d="m225.906 193.24-35.762-59.825c-3.446-5.765-1.566-13.231 4.198-16.677l18.041-10.785c5.765-3.446 13.232-1.566 16.678 4.198l18.147 30.358 37.275-75.198c2.983-6.017 10.279-8.478 16.296-5.495l18.832 9.335c6.017 2.983 8.478 10.279 5.495 16.296l-52.521 105.957c-1.976 3.987-5.972 6.576-10.418 6.751l-25.345.997c-4.446.174-8.633-2.093-10.916-5.912z" fill="#f9da41"/></g><g><path d="m503.094 132.428c-2.561-23.589-21.526-42.059-45.097-43.917-27.491-2.166-55.419-3.895-83.112-5.178-17.679-48.56-64.305-83.333-118.904-83.333-29.77 0-58.679 10.542-81.401 29.684-3.168 2.668-3.572 7.4-.904 10.568 2.669 3.168 7.399 3.573 10.568.904 20.022-16.867 45.499-26.156 71.737-26.156 61.475 0 111.488 50.014 111.488 111.488s-50.014 111.488-111.488 111.488-111.488-50.014-111.488-111.488c0-23.402 7.165-45.791 20.72-64.747 2.409-3.369 1.631-8.054-1.738-10.463-3.365-2.407-8.053-1.632-10.463 1.738-6.747 9.436-12.098 19.62-15.981 30.32-27.677 1.283-55.589 3.011-83.064 5.175-23.57 1.858-42.536 20.328-45.097 43.917-11.793 108.717-11.793 218.966 0 327.684 2.561 23.588 21.526 42.058 45.096 43.917 67.046 5.289 134.558 7.934 202.062 7.933 62.476 0 124.948-2.267 186.979-6.8 4.131-.302 7.235-3.896 6.934-8.027-.303-4.131-3.878-7.234-8.027-6.933-128.3 9.375-258.428 8.997-386.768-1.126-16.329-1.288-29.478-14.06-31.339-30.399-.001-.013 0-.025-.001-.038-2.427-27.717 28.035-77.704 77.607-127.348 2.927-2.931 2.923-7.68-.008-10.606-2.932-2.927-7.68-2.923-10.607.008-27.638 27.679-55.992 62.638-71.08 94.358-6.243-78.94-6.246-158.471-.012-237.411 10.774 22.797 29.184 48.96 54.125 76.398 1.034 1.152 2.09 2.294 3.157 3.449 20.27 21.894 43.575 43.154 67.399 61.484 38.219 29.394 76.066 50.197 109.451 60.161.699.209 1.422.313 2.145.313s1.445-.104 2.146-.313c34.017-10.156 72.531-31.48 111.379-61.665 8.998-6.985 17.964-14.419 26.648-22.096 15.04-13.293 29.271-27.317 42.301-41.684 24.778-27.325 43.075-53.369 53.802-76.066 6.236 78.949 6.233 158.488-.011 237.437-15.087-31.723-43.437-66.685-71.077-94.366-2.928-2.931-7.676-2.934-10.607-.008-2.931 2.927-2.935 7.675-.008 10.606 49.571 49.645 80.033 99.631 77.606 127.348v.001c-1.329 11.78-8.772 22.226-19.461 27.283-3.744 1.771-5.343 6.243-3.571 9.987 1.281 2.708 3.975 4.294 6.784 4.294 1.075 0 2.167-.232 3.203-.723 15.416-7.294 26.137-22.38 27.978-39.37 11.792-108.714 11.792-218.964-.001-327.682zm-75.75 111.184c-12.659 13.958-26.495 27.592-41.124 40.521-8.446 7.467-17.164 14.696-25.914 21.488-36.572 28.417-72.587 48.6-104.324 58.484-31.131-9.694-66.499-29.373-102.45-57.023-23.167-17.825-45.83-38.498-65.535-59.782-1.015-1.097-2.02-2.184-3.036-3.316-39.82-43.808-63.253-85.98-61.161-110.07 1.84-16.365 15.001-29.161 31.345-30.449 25.619-2.019 51.616-3.646 77.449-4.896-2.041 9.078-3.099 18.422-3.099 27.918 0 69.746 56.742 126.488 126.488 126.488s126.487-56.741 126.487-126.487c0-9.591-1.079-18.934-3.111-27.918 25.837 1.25 51.838 2.877 77.461 4.896 16.344 1.288 29.505 14.084 31.345 30.448 2.08 23.999-21.222 66.029-60.821 109.698z"/><path d="m236.341 206.661c.258 0 .517-.005.776-.015l25.345-.997c7.191-.283 13.646-4.464 16.843-10.914l52.521-105.958c4.814-9.713.829-21.532-8.884-26.347l-18.831-9.334c-4.706-2.333-10.039-2.693-15.014-1.015-4.977 1.678-9.002 5.193-11.334 9.898l-31.171 62.883-11.095-18.56c-2.694-4.508-6.982-7.697-12.076-8.979-5.093-1.282-10.38-.503-14.887 2.19l-18.042 10.784c-9.304 5.562-12.349 17.658-6.787 26.963l35.763 59.825c3.561 5.958 9.972 9.576 16.873 9.576zm-38.152-83.487 18.042-10.784c1.068-.639 2.322-.824 3.529-.52s2.224 1.06 2.862 2.128l18.147 30.358c1.408 2.355 3.993 3.758 6.732 3.646 2.742-.108 5.206-1.705 6.425-4.163l37.275-75.199c.553-1.115 1.507-1.948 2.687-2.346 1.182-.396 2.445-.312 3.56.241l18.831 9.334c2.303 1.142 3.248 3.943 2.106 6.246l-52.521 105.957c-.758 1.529-2.288 2.521-3.993 2.588l-25.345.997c-1.689.067-3.308-.801-4.184-2.266l-35.763-59.825c-1.316-2.206-.595-5.073 1.61-6.392z"/></g></g></svg>