<?xml version="1.0"?>
<svg xmlns="http://www.w3.org/2000/svg" xmlns:xlink="http://www.w3.org/1999/xlink" xmlns:svgjs="http://svgjs.com/svgjs" version="1.1" width="512" height="512" x="0" y="0" viewBox="0 0 512 512" style="enable-background:new 0 0 512 512" xml:space="preserve" class=""><g><g xmlns="http://www.w3.org/2000/svg"><path d="m441 442.344c4.143 0 7.5-3.358 7.5-7.5v-406.385c0-15.692-12.767-28.459-28.46-28.459h-34.275c-4.143 0-7.5 3.358-7.5 7.5s3.357 7.5 7.5 7.5h34.275c7.422 0 13.46 6.038 13.46 13.459v398.884h-257.535c-4.143 0-7.5 3.358-7.5 7.5s3.357 7.5 7.5 7.5h127.193v24.596h-212.359c-6.781 0-12.299-5.517-12.299-12.298s5.518-12.298 12.299-12.298h50.263c4.143 0 7.5-3.358 7.5-7.5s-3.357-7.5-7.5-7.5h-29.76v-412.343h239.767c4.143 0 7.5-3.358 7.5-7.5s-3.357-7.5-7.5-7.5h-260.27c-15.053 0-27.299 12.246-27.299 27.298v21.754c0 4.142 3.357 7.5 7.5 7.5s7.5-3.358 7.5-7.5v-21.754c0-6.781 5.518-12.298 12.299-12.298h5.503v412.344h-5.503c-4.422 0-8.601 1.057-12.299 2.931v-346.354c0-4.142-3.357-7.5-7.5-7.5s-7.5 3.358-7.5 7.5v370.72c0 15.052 12.246 27.298 27.299 27.298h212.359v22.56c0 2.539 1.284 4.905 3.413 6.289 2.127 1.383 4.812 1.597 7.133.565l28.333-12.591 28.333 12.591c.974.433 2.012.646 3.045.646 1.43 0 2.853-.409 4.088-1.211 2.129-1.383 3.413-3.75 3.413-6.289v-22.56h60.084c4.143 0 7.5-3.358 7.5-7.5s-3.357-7.5-7.5-7.5h-13.46v-24.596h13.46zm-75.084 50.616-20.833-9.258c-.97-.431-2.008-.646-3.046-.646s-2.076.215-3.046.646l-20.833 9.258v-50.616h47.758zm46.624-26.02h-31.624v-24.596h31.624z" fill="#fc8f1b" data-original="#000000" style=""/><path d="m266.427 318.672c4.143 0 7.5-3.358 7.5-7.5s-3.357-7.5-7.5-7.5h-29.982c-4.143 0-7.5 3.358-7.5 7.5v59.983c0 4.142 3.357 7.5 7.5 7.5h29.982c4.143 0 7.5-3.358 7.5-7.5s-3.357-7.5-7.5-7.5h-22.482v-14.992h22.482c4.143 0 7.5-3.358 7.5-7.5s-3.357-7.5-7.5-7.5h-22.482v-14.992h22.482z" fill="#fc8f1b" data-original="#000000" style=""/><path d="m196.688 303.676c-3.476-.121-6.514 2.14-7.451 5.452l-9.774 34.508-9.774-34.508c-.938-3.312-4.001-5.584-7.451-5.452-3.44.108-6.366 2.544-7.095 5.908l-12.992 59.983c-.877 4.048 1.694 8.041 5.742 8.918 4.051.875 8.041-1.696 8.918-5.742l6.633-30.624 8.804 31.08c.936 3.302 3.941 5.458 7.212 5.458.677 0 1.365-.092 2.048-.286 2.635-.746 4.54-2.812 5.202-5.278l8.773-30.974 6.633 30.623c.876 4.048 4.866 6.62 8.918 5.742 4.048-.877 6.619-4.87 5.742-8.918l-12.992-59.983c-.73-3.363-3.656-5.799-7.096-5.907z" fill="#fc8f1b" data-original="#000000" style=""/><path d="m330.427 303.672c-4.143 0-7.5 3.358-7.5 7.5v32.236l-21.004-36.015c-1.706-2.926-5.162-4.346-8.436-3.462-3.271.884-5.543 3.852-5.543 7.24v59.983c0 4.142 3.357 7.5 7.5 7.5s7.5-3.358 7.5-7.5v-32.236l21.004 36.015c1.367 2.345 3.859 3.723 6.479 3.722.649 0 1.307-.084 1.957-.26 3.271-.884 5.543-3.852 5.543-7.24v-59.983c0-4.142-3.358-7.5-7.5-7.5z" fill="#fc8f1b" data-original="#000000" style=""/><path d="m352.927 311.172v59.983c0 4.142 3.357 7.5 7.5 7.5h30.982c4.143 0 7.5-3.358 7.5-7.5v-59.983c0-4.142-3.357-7.5-7.5-7.5s-7.5 3.358-7.5 7.5v52.483h-15.982v-52.483c0-4.142-3.357-7.5-7.5-7.5s-7.5 3.358-7.5 7.5z" fill="#fc8f1b" data-original="#000000" style=""/><path d="m251.944 251.032v-59.288c0-9.778-6.27-18.119-15-21.215v-14.303c17.096-3.484 30-18.636 30-36.746v-48.037c0-4.142-3.357-7.5-7.5-7.5s-7.5 3.358-7.5 7.5v48.038c0 9.778-6.27 18.119-15 21.215v-69.253c0-4.142-3.357-7.5-7.5-7.5s-7.5 3.358-7.5 7.5v69.252c-8.73-3.095-15-11.437-15-21.215v-48.037c0-4.142-3.357-7.5-7.5-7.5s-7.5 3.358-7.5 7.5v48.038c0 18.11 12.904 33.262 30 36.746v14.303c-8.73 3.095-15 11.437-15 21.215v59.288c0 12.407 10.094 22.5 22.5 22.5s22.5-10.094 22.5-22.501zm-30 0v-59.288c0-4.136 3.364-7.5 7.5-7.5s7.5 3.364 7.5 7.5v59.288c0 4.136-3.364 7.5-7.5 7.5s-7.5-3.364-7.5-7.5z" fill="#fc8f1b" data-original="#000000" style=""/><path d="m339.957 176.98c4.143 0 7.5-3.358 7.5-7.5v-98.037c0-4.142-3.357-7.5-7.5-7.5-26.191 0-47.5 21.309-47.5 47.5v58.038c0 4.142 3.357 7.5 7.5 7.5h12.5v13.55c-8.73 3.095-15 11.437-15 21.215v39.288c0 12.407 10.094 22.5 22.5 22.5s22.5-10.093 22.5-22.5v-39.288c0-9.778-6.27-18.119-15-21.215v-13.55h12.5zm-12.5 74.052c0 4.136-3.364 7.5-7.5 7.5s-7.5-3.364-7.5-7.5v-39.288c0-4.136 3.364-7.5 7.5-7.5s7.5 3.364 7.5 7.5zm-20-139.589c0-15.34 10.683-28.232 25-31.626v82.164h-25z" fill="#fc8f1b" data-original="#000000" style=""/></g></g></svg>
