<?xml version="1.0"?>
<svg xmlns="http://www.w3.org/2000/svg" xmlns:xlink="http://www.w3.org/1999/xlink" xmlns:svgjs="http://svgjs.com/svgjs" version="1.1" width="512" height="512" x="0" y="0" viewBox="0 0 512 512" style="enable-background:new 0 0 512 512" xml:space="preserve" class=""><g><path xmlns="http://www.w3.org/2000/svg" d="m397.914062 216.9375c5.570313 0 10.085938-4.515625 10.085938-10.085938v-129.128906c0-2.671875-1.0625-5.238281-2.953125-7.128906l-67.648437-67.640625c-1.890626-1.890625-4.457032-2.953125-7.128907-2.953125h-300.214843c-16.574219 0-30.054688 13.484375-30.054688 30.0625v451.847656c0 16.589844 13.480469 30.089844 30.054688 30.089844h347.863281c16.585937 0 30.082031-13.5 30.082031-30.089844v-188.859375c0-5.570312-4.515625-10.085937-10.085938-10.085937-5.566406 0-10.082031 4.515625-10.082031 10.085937v188.855469c0 5.472656-4.445312 9.921875-9.914062 9.921875h-347.863281c-5.449219 0-9.886719-4.449219-9.886719-9.921875v-451.84375c0-5.453125 4.433593-9.890625 9.886719-9.890625h290.132812v37.574219c0 16.578125 13.492188 30.0625 30.082031 30.0625h37.566407v119.042968c-.003907 5.570313 4.511718 10.085938 10.078124 10.085938zm-57.5625-159.191406v-23.316406l33.21875 33.210937h-23.300781c-5.46875 0-9.917969-4.441406-9.917969-9.894531zm0 0" fill="#8b91a1" data-original="#000000" style="" class=""/><path xmlns="http://www.w3.org/2000/svg" d="m287.382812 137.679688h-42.859374c-5.570313 0-10.082032-4.515626-10.082032-10.082032 0-5.570312 4.511719-10.085937 10.082032-10.085937h42.859374c5.566407 0 10.082032 4.515625 10.082032 10.085937 0 5.566406-4.515625 10.082032-10.082032 10.082032zm0 0" fill="#8b91a1" data-original="#000000" style="" class=""/><path xmlns="http://www.w3.org/2000/svg" d="m221.351562 122.492188c0 6.378906-1.816406 11.476562-5.496093 15.332031-3.683594 3.824219-8.128907 6.347656-13.339844 7.59375v8.585937c0 3.96875-3.371094 7.226563-7.367187 7.226563-3.964844 0-7.195313-3.257813-7.195313-7.226563v-8.53125c-3.257813-.734375-6.203125-1.953125-8.839844-3.625-3.511719-2.238281-4.8125-3.457031-7.222656-6.601562-6.65625-8.699219 4.335937-18.023438 10.707031-11.308594.792969.824219 1.617188 1.785156 2.550782 2.835938 2.664062 2.972656 6.570312 3.457031 9.773437 3.457031 6.03125 0 9.0625-2.496094 9.0625-7.484375 0-1.78125-1.160156-3.171875-3.425781-4.160156-2.296875-.992188-5.070313-1.871094-8.328125-2.636719-3.289063-.765625-6.546875-1.8125-9.800781-3.117188-3.257813-1.304687-6.035157-3.570312-8.332032-6.742187-2.292968-3.175782-3.425781-7.226563-3.425781-12.128906 0-4.902344 1.585937-9.296876 4.644531-13.234376 3.0625-3.882812 7.453125-6.515624 12.75-7.566406l.027344-1.644531v-8.242187c0-3.96875 3.226562-7.199219 7.195312-7.199219 3.964844 0 7.222657 3.230469 7.222657 7.199219v10c2.265625.484374 4.363281 1.164062 6.234375 2.070312 1.894531.90625 3.199218 1.640625 3.933594 2.210938l1.078124.988281c9.488282 7.085937.339844 19.695312-7.847656 12.808593-5.523437-4.675781-18.101562-5.695312-18.101562 2.863282 0 1.785156.851562 3.230468 2.519531 4.335937 1.675781 1.101563 3.742187 1.839844 6.179687 2.210938 2.433594.367187 5.152344.988281 8.070313 1.839843 2.945313.851563 5.636719 1.84375 8.101563 3.003907 2.4375 1.132812 4.503906 3.144531 6.175781 6.066406 1.671875 2.890625 2.496093 6.515625 2.496093 10.820313zm0 0" fill="#8b91a1" data-original="#000000" style="" class=""/><path xmlns="http://www.w3.org/2000/svg" d="m143.734375 137.679688h-42.859375c-5.570312 0-10.085938-4.515626-10.085938-10.082032 0-5.570312 4.515626-10.085937 10.085938-10.085937h42.859375c5.566406 0 10.082031 4.515625 10.082031 10.085937 0 5.566406-4.515625 10.082032-10.082031 10.082032zm0 0" fill="#8b91a1" data-original="#000000" style="" class=""/><path xmlns="http://www.w3.org/2000/svg" d="m287.382812 101.269531h-42.859374c-5.570313 0-10.082032-4.515625-10.082032-10.085937 0-5.570313 4.511719-10.085938 10.082032-10.085938h42.859374c5.566407 0 10.082032 4.515625 10.082032 10.085938 0 5.570312-4.515625 10.085937-10.082032 10.085937zm0 0" fill="#8b91a1" data-original="#000000" style="" class=""/><path xmlns="http://www.w3.org/2000/svg" d="m143.734375 101.269531h-42.859375c-5.570312 0-10.085938-4.515625-10.085938-10.085937 0-5.570313 4.515626-10.085938 10.085938-10.085938h42.859375c5.566406 0 10.082031 4.515625 10.082031 10.085938 0 5.570312-4.515625 10.085937-10.082031 10.085937zm0 0" fill="#8b91a1" data-original="#000000" style="" class=""/><path xmlns="http://www.w3.org/2000/svg" d="m307.664062 215.148438h-114.640624c-5.570313 0-10.085938-4.511719-10.085938-10.082032 0-5.570312 4.515625-10.085937 10.085938-10.085937h114.640624c5.570313 0 10.082032 4.515625 10.082032 10.085937 0 5.570313-4.511719 10.082032-10.082032 10.082032zm0 0" fill="#8b91a1" data-original="#000000" style="" class=""/><path xmlns="http://www.w3.org/2000/svg" d="m307.664062 253.289062h-114.640624c-5.570313 0-10.085938-4.511718-10.085938-10.082031 0-5.570312 4.515625-10.085937 10.085938-10.085937h114.640624c5.570313 0 10.082032 4.515625 10.082032 10.085937 0 5.570313-4.511719 10.082031-10.082032 10.082031zm0 0" fill="#8b91a1" data-original="#000000" style="" class=""/><path xmlns="http://www.w3.org/2000/svg" d="m144.839844 259.46875h-59.375c-5.570313 0-10.085938-4.515625-10.085938-10.085938v-54.007812c0-5.570312 4.515625-10.085938 10.085938-10.085938h59.375c5.566406 0 10.082031 4.515626 10.082031 10.085938v54.007812c0 5.570313-4.515625 10.085938-10.082031 10.085938zm-49.292969-20.167969h39.207031v-33.839843h-39.207031zm0 0" fill="#8b91a1" data-original="#000000" style="" class=""/><path xmlns="http://www.w3.org/2000/svg" d="m144.839844 351.503906h-59.375c-5.570313 0-10.085938-4.515625-10.085938-10.085937v-54.007813c0-5.570312 4.515625-10.085937 10.085938-10.085937h59.375c5.566406 0 10.082031 4.515625 10.082031 10.085937v54.007813c0 5.570312-4.515625 10.085937-10.082031 10.085937zm-49.292969-20.167968h39.207031v-33.839844h-39.207031zm0 0" fill="#8b91a1" data-original="#000000" style="" class=""/><path xmlns="http://www.w3.org/2000/svg" d="m144.839844 453.0625h-59.375c-5.570313 0-10.085938-4.515625-10.085938-10.085938v-54.039062c0-5.570312 4.515625-10.085938 10.085938-10.085938h59.375c5.566406 0 10.082031 4.515626 10.082031 10.085938v54.039062c0 5.570313-4.515625 10.085938-10.082031 10.085938zm-49.292969-20.171875h39.207031v-33.867187h-39.207031zm0 0" fill="#8b91a1" data-original="#000000" style="" class=""/><path xmlns="http://www.w3.org/2000/svg" d="m306.984375 305.515625h-114.640625c-5.570312 0-10.085938-4.515625-10.085938-10.085937 0-5.570313 4.515626-10.085938 10.085938-10.085938h114.640625c5.570313 0 10.082031 4.515625 10.082031 10.085938 0 5.570312-4.511718 10.085937-10.082031 10.085937zm0 0" fill="#8b91a1" data-original="#000000" style="" class=""/><path xmlns="http://www.w3.org/2000/svg" d="m306.984375 343.683594h-114.640625c-5.570312 0-10.085938-4.515625-10.085938-10.085938 0-5.566406 4.515626-10.082031 10.085938-10.082031h114.640625c5.570313 0 10.082031 4.515625 10.082031 10.082031 0 5.570313-4.511718 10.085938-10.082031 10.085938zm0 0" fill="#8b91a1" data-original="#000000" style="" class=""/><path xmlns="http://www.w3.org/2000/svg" d="m307.011719 407.554688h-114.667969c-5.570312 0-10.085938-4.515626-10.085938-10.085938s4.515626-10.085938 10.085938-10.085938h114.667969c5.570312 0 10.085937 4.515626 10.085937 10.085938s-4.515625 10.085938-10.085937 10.085938zm0 0" fill="#8b91a1" data-original="#000000" style="" class=""/><path xmlns="http://www.w3.org/2000/svg" d="m307.011719 445.691406h-114.667969c-5.570312 0-10.085938-4.511718-10.085938-10.082031s4.515626-10.085937 10.085938-10.085937h114.667969c5.570312 0 10.085937 4.515624 10.085937 10.085937s-4.515625 10.082031-10.085937 10.082031zm0 0" fill="#8b91a1" data-original="#000000" style="" class=""/><path xmlns="http://www.w3.org/2000/svg" d="m397.914062 256.859375c-5.566406 0-10.082031-4.511719-10.082031-10.082031v-.199219c0-5.570313 4.515625-10.085937 10.082031-10.085937 5.570313 0 10.085938 4.515624 10.085938 10.085937v.199219c0 5.570312-4.515625 10.082031-10.085938 10.082031zm0 0" fill="#8b91a1" data-original="#000000" style="" class=""/></g></svg>
