<?xml version="1.0"?>
<svg xmlns="http://www.w3.org/2000/svg" xmlns:xlink="http://www.w3.org/1999/xlink" xmlns:svgjs="http://svgjs.com/svgjs" version="1.1" width="512" height="512" x="0" y="0" viewBox="0 0 24 24" style="enable-background:new 0 0 512 512" xml:space="preserve" class=""><g><g xmlns="http://www.w3.org/2000/svg" id="_19" data-name="19"><path d="m12 19a1 1 0 0 1 -.71-1.71l5.3-5.29-5.3-5.29a1 1 0 0 1 1.41-1.41l6 6a1 1 0 0 1 0 1.41l-6 6a1 1 0 0 1 -.7.29z" fill="#ffffff" data-original="#000000" style=""/><path d="m6 19a1 1 0 0 1 -.71-1.71l5.3-5.29-5.3-5.29a1 1 0 0 1 1.42-1.42l6 6a1 1 0 0 1 0 1.41l-6 6a1 1 0 0 1 -.71.3z" fill="#ffffff" data-original="#000000" style=""/></g></g></svg>
